<svg xmlns="http://www.w3.org/2000/svg" width="73.977" height="62.927" viewBox="0 0 73.977 62.927">
  <g id="codificacion" transform="translate(-4.75 -13.6)">
    <path id="Trazado_9" data-name="Trazado 9" d="M77.635,13.6H5.842A1.093,1.093,0,0,0,4.75,14.692V75.44a1.093,1.093,0,0,0,1.092,1.088H77.635a1.093,1.093,0,0,0,1.092-1.092V14.69a1.093,1.093,0,0,0-1.092-1.09Zm-70.7,2.185H76.542v6.64H6.935Zm0,58.563V24.61H76.542V74.343Z" transform="translate(0 0)" fill="#fff"/>
    <path id="Trazado_10" data-name="Trazado 10" d="M81.822,19.393a1.888,1.888,0,1,0,1.888,1.888A1.888,1.888,0,0,0,81.822,19.393Z" transform="translate(-28.248 -2.177)" fill="#fff"/>
    <path id="Trazado_11" data-name="Trazado 11" d="M93.655,19.393a1.888,1.888,0,1,0,1.887,1.888,1.888,1.888,0,0,0-1.887-1.888Z" transform="translate(-32.694 -2.177)" fill="#fff"/>
    <path id="Trazado_12" data-name="Trazado 12" d="M105.488,19.393a1.888,1.888,0,1,0,1.887,1.888,1.888,1.888,0,0,0-1.887-1.888Z" transform="translate(-37.14 -2.177)" fill="#fff"/>
    <path id="Trazado_13" data-name="Trazado 13" d="M46.474,57.052a1.091,1.091,0,0,0-1.544,0L37.07,64.911a1.092,1.092,0,0,0,0,1.545l7.859,7.861a1.092,1.092,0,0,0,1.544-1.544l-7.086-7.089L46.474,58.6a1.091,1.091,0,0,0,0-1.544Z" transform="translate(-12.023 -16.206)" fill="#fff"/>
    <path id="Trazado_14" data-name="Trazado 14" d="M77.025,57.052A1.092,1.092,0,0,0,75.481,58.6l7.086,7.086L75.481,72.77a1.093,1.093,0,1,0,1.544,1.547l7.859-7.861a1.092,1.092,0,0,0,0-1.545Z" transform="translate(-26.454 -16.206)" fill="#fff"/>
    <path id="Trazado_15" data-name="Trazado 15" d="M65.215,46.3a1.1,1.1,0,0,0-1.344.763L55.926,75.854a1.092,1.092,0,1,0,2.106.581l7.945-28.787A1.092,1.092,0,0,0,65.215,46.3Z" transform="translate(-19.213 -12.273)" fill="#fff"/>
  </g>
</svg>
