<svg xmlns="http://www.w3.org/2000/svg" width="76" height="69.811" viewBox="0 0 76 69.811">
  <g id="correo" transform="translate(0 -5.212)">
    <path id="Trazado_139" data-name="Trazado 139" d="M76,37.336a1.085,1.085,0,0,0-.384-.806L62.591,25.945V6.251a1.039,1.039,0,0,0-1.039-1.039h-47.1a1.039,1.039,0,0,0-1.039,1.039V25.945L.384,36.529A1.085,1.085,0,0,0,0,37.336V73.984a1.057,1.057,0,0,0,1.039,1.039H74.961A1.057,1.057,0,0,0,76,73.984ZM2.078,38.989l18.963,9.144L2.078,71.094Zm20.89,10.075L37.549,56.1a1.037,1.037,0,0,0,.9,0l14.58-7.031L72.755,72.945H3.245Zm31.991-.931,18.963-9.144v32.1ZM73.036,37.109,62.591,42.146V28.622ZM15.487,7.29H60.513V43.149L38,54.006,15.487,43.149ZM13.409,28.622V42.147L2.964,37.111Z" fill="#fff"/>
    <path id="Trazado_140" data-name="Trazado 140" d="M34.414,17.378H51.559a1.039,1.039,0,0,0,0-2.078H34.414a1.039,1.039,0,0,0,0,2.078Z" transform="translate(-13.559 -4.098)" fill="#fff"/>
    <path id="Trazado_141" data-name="Trazado 141" d="M34.414,26.878H68.7a1.039,1.039,0,0,0,0-2.078H34.414a1.039,1.039,0,0,0,0,2.078Z" transform="translate(-13.559 -7.958)" fill="#fff"/>
    <path id="Trazado_142" data-name="Trazado 142" d="M34.414,36.373H68.7a1.039,1.039,0,1,0,0-2.078H34.414a1.039,1.039,0,0,0,0,2.078Z" transform="translate(-13.559 -11.815)" fill="#fff"/>
    <path id="Trazado_143" data-name="Trazado 143" d="M34.414,45.872H68.7a1.039,1.039,0,0,0,0-2.078H34.414a1.039,1.039,0,0,0,0,2.078Z" transform="translate(-13.559 -15.674)" fill="#fff"/>
    <path id="Trazado_144" data-name="Trazado 144" d="M34.414,55.37H68.7a1.039,1.039,0,0,0,0-2.078H34.414a1.039,1.039,0,0,0,0,2.078Z" transform="translate(-13.559 -19.533)" fill="#fff"/>
    <path id="Trazado_145" data-name="Trazado 145" d="M34.414,64.87H68.7a1.039,1.039,0,1,0,0-2.078H34.414a1.039,1.039,0,0,0,0,2.078Z" transform="translate(-13.559 -23.392)" fill="#fff"/>
  </g>
</svg>
