<svg xmlns="http://www.w3.org/2000/svg" width="62.18" height="62.179" viewBox="0 0 62.18 62.179">
  <g id="diseno-grafico" transform="translate(-17.242 -17.244)">
    <path id="Trazado_5" data-name="Trazado 5" d="M78.259,44.573H76.8A25.621,25.621,0,0,0,61.882,22.481h9.567a4.072,4.072,0,1,0,0-2.327H52.4V18.412a1.164,1.164,0,0,0-1.164-1.164H45.429a1.164,1.164,0,0,0-1.164,1.164v1.742H25.22a4.074,4.074,0,1,0,0,2.327h9.568A25.621,25.621,0,0,0,19.874,44.573H18.411a1.164,1.164,0,0,0-1.164,1.164v5.2A1.164,1.164,0,0,0,18.411,52.1h5.2a1.164,1.164,0,0,0,1.164-1.164v-5.2a1.164,1.164,0,0,0-1.164-1.164H22.2A23.289,23.289,0,0,1,44.265,22.51v1.72a1.164,1.164,0,0,0,1.164,1.164h5.812A1.164,1.164,0,0,0,52.4,24.23V22.51A23.289,23.289,0,0,1,74.468,44.573H73.063A1.164,1.164,0,0,0,71.9,45.737v5.2A1.164,1.164,0,0,0,73.063,52.1h5.2a1.164,1.164,0,0,0,1.164-1.164v-5.2A1.164,1.164,0,0,0,78.259,44.573Zm-55.815,5.2H19.575V46.9h2.869ZM75.35,19.575A1.745,1.745,0,1,1,73.6,21.319a1.745,1.745,0,0,1,1.746-1.745ZM21.32,23.066a1.745,1.745,0,1,1,1.746-1.746A1.745,1.745,0,0,1,21.32,23.066Zm28.757,0H46.593V19.575h3.484Zm27.018,26.7H74.226V46.9h2.869Z" fill="#fff"/>
    <path id="Trazado_6" data-name="Trazado 6" d="M59.305,37.03a1.164,1.164,0,0,0-2.173.579V56.4a1.165,1.165,0,0,0,.547.987,2.644,2.644,0,1,1-2.793,0,1.165,1.165,0,0,0,.547-.987V37.612a1.164,1.164,0,0,0-2.173-.579L41.114,58.192a1.165,1.165,0,0,0-.037,1.088L46.8,71.067h-.9a4.294,4.294,0,0,0-4.289,4.289V76.7a4.293,4.293,0,0,0,3.724,4.248v3.745A1.164,1.164,0,0,0,46.5,85.856H66.063a1.164,1.164,0,0,0,1.164-1.164V80.947A4.293,4.293,0,0,0,70.95,76.7V75.356a4.294,4.294,0,0,0-4.289-4.289h-.9L71.485,59.28a1.165,1.165,0,0,0-.037-1.088Zm5.594,46.5H47.663v-2.54H64.9Zm3.724-8.173V76.7a1.964,1.964,0,0,1-1.962,1.962H45.9A1.964,1.964,0,0,1,43.939,76.7V75.356A1.964,1.964,0,0,1,45.9,73.394h20.76A1.964,1.964,0,0,1,68.623,75.356ZM63.17,71.067H49.389l-5.95-12.25L53.1,41.976V55.808a4.971,4.971,0,1,0,6.357,0V41.976l9.663,16.84Z" transform="translate(-7.946 -6.433)" fill="#fff"/>
  </g>
</svg>
