<svg xmlns="http://www.w3.org/2000/svg" width="84.421" height="58.611" viewBox="0 0 84.421 58.611">
  <g id="e-aprendizaje" transform="translate(-4.557 -22.73)">
    <path id="Trazado_158" data-name="Trazado 158" d="M81.682,31.077H20.2A1.243,1.243,0,0,0,18.96,32.32V70.665A1.243,1.243,0,0,0,20.2,71.908H81.682a1.242,1.242,0,0,0,1.243-1.243V32.32a1.242,1.242,0,0,0-1.243-1.243ZM80.439,69.422H21.445V33.562H80.439Z" transform="translate(-4.175 -2.42)" fill="#fff"/>
    <path id="Trazado_159" data-name="Trazado 159" d="M87.735,72.929H84.676V28.235a5.512,5.512,0,0,0-5.5-5.505H14.363a5.512,5.512,0,0,0-5.505,5.505V72.929H5.8a1.242,1.242,0,0,0-1.243,1.243v1.667a5.51,5.51,0,0,0,5.5,5.5H83.474a5.51,5.51,0,0,0,5.5-5.5V74.172a1.242,1.242,0,0,0-1.243-1.243ZM11.343,28.235a3.024,3.024,0,0,1,3.02-3.02H79.172a3.024,3.024,0,0,1,3.019,3.02V72.929H11.343Zm75.149,47.6a3.021,3.021,0,0,1-3.018,3.018H10.06a3.021,3.021,0,0,1-3.018-3.018v-.426h79.45Z" fill="#fff"/>
    <path id="Trazado_160" data-name="Trazado 160" d="M36.818,68.7H74.7a1.242,1.242,0,0,0,1.243-1.243V43.06A1.242,1.242,0,0,0,74.7,41.818H71.633V39.956a1.243,1.243,0,0,0-1.243-1.243,35.551,35.551,0,0,0-14.631,2.962,35.554,35.554,0,0,0-14.628-2.962,1.243,1.243,0,0,0-1.243,1.243v1.862H36.818a1.242,1.242,0,0,0-1.243,1.243V67.454A1.242,1.242,0,0,0,36.818,68.7ZM73.459,44.3V66.211H63.741a36,36,0,0,1,6.649-.619,1.243,1.243,0,0,0,1.243-1.243V44.3ZM69.148,63.13A36.418,36.418,0,0,0,57.005,65.54v-21.7a33.323,33.323,0,0,1,12.143-2.627ZM42.371,41.22a33.327,33.327,0,0,1,12.143,2.627V65.536a36.417,36.417,0,0,0-12.143-2.409ZM38.06,44.3h1.826V64.35a1.243,1.243,0,0,0,1.243,1.243,36,36,0,0,1,6.65.619H38.06Z" transform="translate(-8.992 -4.633)" fill="#fff"/>
    <path id="Trazado_161" data-name="Trazado 161" d="M75.527,56.209a37.209,37.209,0,0,0-6.533,1.314A1.243,1.243,0,1,0,69.7,59.9a34.731,34.731,0,0,1,6.1-1.226,1.243,1.243,0,1,0-.273-2.47Z" transform="translate(-18.423 -9.702)" fill="#fff"/>
    <path id="Trazado_162" data-name="Trazado 162" d="M69.348,51.446a1.236,1.236,0,0,0,.355-.052,34.676,34.676,0,0,1,6.1-1.226,1.243,1.243,0,0,0-.273-2.47,37.133,37.133,0,0,0-6.533,1.315,1.243,1.243,0,0,0,.355,2.433Z" transform="translate(-18.424 -7.236)" fill="#fff"/>
    <path id="Trazado_163" data-name="Trazado 163" d="M75.527,64.719a37.067,37.067,0,0,0-6.533,1.314,1.243,1.243,0,1,0,.71,2.382,34.612,34.612,0,0,1,6.1-1.228,1.243,1.243,0,1,0-.273-2.47Z" transform="translate(-18.423 -12.169)" fill="#fff"/>
    <path id="Trazado_164" data-name="Trazado 164" d="M55.427,57.525a37.209,37.209,0,0,0-6.533-1.314,1.243,1.243,0,0,0-.273,2.47,34.716,34.716,0,0,1,6.1,1.226,1.243,1.243,0,1,0,.71-2.382Z" transform="translate(-12.462 -9.705)" fill="#fff"/>
    <path id="Trazado_165" data-name="Trazado 165" d="M48.608,50.168a34.643,34.643,0,0,1,6.1,1.226,1.243,1.243,0,0,0,.71-2.381A37.155,37.155,0,0,0,48.881,47.7a1.243,1.243,0,0,0-.273,2.47Z" transform="translate(-12.45 -7.236)" fill="#fff"/>
    <path id="Trazado_166" data-name="Trazado 166" d="M48.6,67.187a34.582,34.582,0,0,1,6.1,1.226,1.243,1.243,0,1,0,.71-2.382,37.091,37.091,0,0,0-6.533-1.314,1.243,1.243,0,1,0-.273,2.47Z" transform="translate(-12.439 -12.169)" fill="#fff"/>
  </g>
</svg>
