<svg xmlns="http://www.w3.org/2000/svg" width="43.195" height="43.201" viewBox="0 0 43.195 43.201">
  <g id="enlace" transform="translate(-0.039 0)">
    <g id="Grupo_24" data-name="Grupo 24" transform="translate(0.039 13.887)">
      <g id="Grupo_23" data-name="Grupo 23" transform="translate(0)">
        <path id="Trazado_16" data-name="Trazado 16" d="M26.4,167.565A9.8,9.8,0,0,0,24.7,166.2a10.08,10.08,0,0,0-12.562,1.361L2.984,176.73a10.079,10.079,0,0,0,14.247,14.261l7.559-7.559a.72.72,0,0,0-.511-1.231h-.288a12.117,12.117,0,0,1-4.607-.893.72.72,0,0,0-.785.158l-5.435,5.442A4.322,4.322,0,0,1,7.052,180.8l9.193-9.186a4.319,4.319,0,0,1,6.1,0,2.952,2.952,0,0,0,4.046,0,2.852,2.852,0,0,0,0-4.046Z" transform="translate(-0.039 -164.614)" fill="#fff"/>
      </g>
    </g>
    <g id="Grupo_26" data-name="Grupo 26" transform="translate(16.023 0)">
      <g id="Grupo_25" data-name="Grupo 25" transform="translate(0 0)">
        <path id="Trazado_17" data-name="Trazado 17" d="M213.761,2.952a10.079,10.079,0,0,0-14.254,0L191.955,10.5a.723.723,0,0,0,.525,1.231h.266a12.094,12.094,0,0,1,4.6.9.72.72,0,0,0,.785-.158l5.421-5.414a4.322,4.322,0,1,1,6.112,6.112l-6.753,6.745-.058.065-2.361,2.347a4.319,4.319,0,0,1-6.1,0,2.952,2.952,0,0,0-4.046,0,2.87,2.87,0,0,0,0,4.06,9.993,9.993,0,0,0,2.88,2.016c.151.072.3.13.454.194s.31.115.461.173.31.108.461.151l.425.115c.288.072.576.13.871.18a10.022,10.022,0,0,0,1.073.1h.547l.432-.05c.158-.007.324-.043.511-.043h.245l.5-.072.23-.043.418-.086h.079A10.078,10.078,0,0,0,204.6,26.37l9.164-9.164A10.079,10.079,0,0,0,213.761,2.952Z" transform="translate(-189.502 0)" fill="#fff"/>
      </g>
    </g>
  </g>
</svg>
