<svg xmlns="http://www.w3.org/2000/svg" width="80.873" height="93.52" viewBox="0 0 80.873 93.52">
  <path id="equilibrio" d="M97.935,38.524H72.609a12.387,12.387,0,1,0-17.218,0H30.065a6.5,6.5,0,1,0,0,13.007h19.01v52.508a6.712,6.712,0,1,0,13.424,0V81.885a1.5,1.5,0,0,1,3,0v22.154a6.712,6.712,0,1,0,13.423,0V51.531h19.01a6.5,6.5,0,1,0,0-13.007ZM55.113,29.637A8.887,8.887,0,1,1,64,38.524a8.887,8.887,0,0,1-8.887-8.887ZM97.935,48.031H77.175a1.75,1.75,0,0,0-1.75,1.75v54.258a3.212,3.212,0,1,1-6.423,0V81.885a5,5,0,0,0-10,0v22.154a3.212,3.212,0,1,1-6.424,0V49.781a1.75,1.75,0,0,0-1.75-1.75H30.065a3,3,0,1,1,0-6.007h67.87a3,3,0,0,1,0,6.007Z" transform="translate(-23.562 -17.231)" fill="#fff"/>
</svg>
