<svg xmlns="http://www.w3.org/2000/svg" width="80.876" height="76" viewBox="0 0 80.876 76">
  <g id="programacion" transform="translate(-5.214 -8.759)">
    <path id="Trazado_167" data-name="Trazado 167" d="M82.8,71.3h-.061V27.724a7.6,7.6,0,0,0-7.585-7.594H58a.449.449,0,0,1,.09-.138l1.478-1.478a2.467,2.467,0,0,0,0-3.481l-1.755-1.755a2.467,2.467,0,0,0-3.482,0l-1.476,1.477a.445.445,0,0,1-.529.075,14.049,14.049,0,0,0-2.644-1.09.446.446,0,0,1-.323-.429v-2.09a2.466,2.466,0,0,0-2.463-2.463H44.414a2.466,2.466,0,0,0-2.463,2.463v2.087a.446.446,0,0,1-.323.429,14.033,14.033,0,0,0-2.649,1.1.444.444,0,0,1-.528-.076L36.978,13.28a2.468,2.468,0,0,0-3.483,0l-1.755,1.755a2.467,2.467,0,0,0,0,3.481l1.477,1.477a.449.449,0,0,1,.09.138H15.336a7.6,7.6,0,0,0-7.594,7.592V71.4a3.294,3.294,0,0,0-2.528,3.2v3.164a7,7,0,0,0,6.994,6.994H79.1a7,7,0,0,0,6.994-6.994V74.6A3.3,3.3,0,0,0,82.8,71.3ZM35.2,14.984a.056.056,0,0,1,.078,0l1.477,1.476a2.838,2.838,0,0,0,3.375.492,11.524,11.524,0,0,1,2.187-.907,2.839,2.839,0,0,0,2.041-2.736V11.222a.055.055,0,0,1,.055-.055h2.48a.055.055,0,0,1,.055.055v2.087a2.839,2.839,0,0,0,2.041,2.736,11.542,11.542,0,0,1,2.187.906,2.835,2.835,0,0,0,3.376-.491l1.477-1.476a.056.056,0,0,1,.078,0l1.754,1.753a.058.058,0,0,1,0,.079l-1.475,1.476a2.836,2.836,0,0,0-.492,3.376,11.532,11.532,0,0,1,.907,2.187A2.839,2.839,0,0,0,59.533,25.9H61.62a.055.055,0,0,1,.055.055v2.481a.055.055,0,0,1-.055.055H59.535A2.839,2.839,0,0,0,56.8,30.528a11.514,11.514,0,0,1-.907,2.188,2.836,2.836,0,0,0,.493,3.375l1.476,1.477a.056.056,0,0,1,0,.078L56.108,39.4a.057.057,0,0,1-.078,0l-1.477-1.477a2.835,2.835,0,0,0-3.376-.492,11.528,11.528,0,0,1-2.187.907,2.838,2.838,0,0,0-2.041,2.735v2.087a.056.056,0,0,1-.055.056h-2.48a.056.056,0,0,1-.055-.056V41.075a2.838,2.838,0,0,0-2.041-2.735,11.511,11.511,0,0,1-2.187-.908,2.877,2.877,0,0,0-1.364-.344,2.835,2.835,0,0,0-2.011.839L35.278,39.4a.058.058,0,0,1-.078,0L33.446,37.65a.056.056,0,0,1,0-.078l1.475-1.48a2.835,2.835,0,0,0,.492-3.376,11.533,11.533,0,0,1-.907-2.187,2.839,2.839,0,0,0-2.736-2.041H29.681a.055.055,0,0,1-.055-.055V25.951a.055.055,0,0,1,.055-.055h2.087A2.839,2.839,0,0,0,34.5,23.855a11.548,11.548,0,0,1,.906-2.187,2.834,2.834,0,0,0-.491-3.376l-1.476-1.476a.058.058,0,0,1,0-.079ZM10.15,27.724a5.192,5.192,0,0,1,5.186-5.187H32.42c-.074.206-.16.413-.224.629a.446.446,0,0,1-.429.323H29.681a2.466,2.466,0,0,0-2.463,2.463v2.481A2.466,2.466,0,0,0,29.681,30.9h2.087a.446.446,0,0,1,.429.323,14,14,0,0,0,1.1,2.644.444.444,0,0,1-.076.529L31.74,35.866a2.467,2.467,0,0,0,0,3.483L33.5,41.1a2.466,2.466,0,0,0,3.482,0l1.476-1.476a.445.445,0,0,1,.528-.077,13.87,13.87,0,0,0,2.644,1.1.446.446,0,0,1,.323.429v2.087a2.467,2.467,0,0,0,2.463,2.463H46.89a2.467,2.467,0,0,0,2.463-2.463V41.075a.446.446,0,0,1,.323-.429,13.887,13.887,0,0,0,2.643-1.1.445.445,0,0,1,.529.076L54.323,41.1a2.466,2.466,0,0,0,3.482,0h0l1.755-1.755a2.467,2.467,0,0,0,0-3.482L58.087,34.39a.444.444,0,0,1-.076-.528,13.984,13.984,0,0,0,1.1-2.644.446.446,0,0,1,.429-.323h2.087a2.466,2.466,0,0,0,2.463-2.463V25.951a2.466,2.466,0,0,0-2.463-2.463H59.535a.446.446,0,0,1-.429-.323c-.064-.213-.15-.419-.224-.629H75.148a5.189,5.189,0,0,1,5.178,5.187V71.3H10.15ZM34.845,73.71H56.461v2.8a.753.753,0,0,1-.753.753H35.6a.753.753,0,0,1-.753-.753Zm48.84,4.054A4.592,4.592,0,0,1,79.1,82.35H12.208a4.592,4.592,0,0,1-4.587-4.587V74.6a.889.889,0,0,1,.888-.887H32.435v2.8a3.164,3.164,0,0,0,3.16,3.16H55.709a3.164,3.164,0,0,0,3.16-3.16v-2.8H82.8a.889.889,0,0,1,.888.887Z" fill="#fff"/>
    <path id="Trazado_168" data-name="Trazado 168" d="M60.276,40.039a8.209,8.209,0,1,0-8.209-8.208A8.209,8.209,0,0,0,60.276,40.039Zm0-14.009a5.8,5.8,0,1,1-5.8,5.8,5.8,5.8,0,0,1,5.8-5.8Z" transform="translate(-14.624 -4.639)" fill="#fff"/>
    <path id="Trazado_169" data-name="Trazado 169" d="M34.47,68.689H24.176a1.2,1.2,0,1,0,0,2.408H34.47a1.2,1.2,0,1,0,0-2.408Z" transform="translate(-5.543 -18.705)" fill="#fff"/>
    <path id="Trazado_170" data-name="Trazado 170" d="M48.516,71.1H85.81a1.2,1.2,0,1,0,0-2.408H48.516a1.2,1.2,0,0,0,0,2.408Z" transform="translate(-13.14 -18.705)" fill="#fff"/>
    <path id="Trazado_171" data-name="Trazado 171" d="M34.47,78.069H24.176a1.2,1.2,0,0,0,0,2.408H34.47a1.2,1.2,0,0,0,0-2.408Z" transform="translate(-5.543 -21.633)" fill="#fff"/>
    <path id="Trazado_172" data-name="Trazado 172" d="M48.516,80.477H73.342a1.2,1.2,0,1,0,0-2.408H48.516a1.2,1.2,0,0,0,0,2.408Z" transform="translate(-13.14 -21.633)" fill="#fff"/>
    <path id="Trazado_173" data-name="Trazado 173" d="M34.47,87.449H24.176a1.2,1.2,0,1,0,0,2.408H34.47a1.2,1.2,0,1,0,0-2.408Z" transform="translate(-5.543 -24.561)" fill="#fff"/>
    <path id="Trazado_174" data-name="Trazado 174" d="M48.516,89.857H82.483a1.2,1.2,0,0,0,0-2.408H48.516a1.2,1.2,0,1,0,0,2.408Z" transform="translate(-13.14 -24.561)" fill="#fff"/>
    <path id="Trazado_175" data-name="Trazado 175" d="M104.657,107.711H92.275a1.2,1.2,0,1,0,0,2.408h12.382a1.2,1.2,0,1,0,0-2.408Z" transform="translate(-26.797 -30.885)" fill="#fff"/>
  </g>
</svg>
