<svg xmlns="http://www.w3.org/2000/svg" width="75.648" height="75.647" viewBox="0 0 75.648 75.647">
  <g id="quedarse-en-casa" transform="translate(-5.249 -5.25)">
    <path id="Trazado_146" data-name="Trazado 146" d="M49.75,68.424a9.174,9.174,0,1,0,9.174-9.174A9.174,9.174,0,0,0,49.75,68.424Zm16.1,0A6.921,6.921,0,1,1,58.924,61.5,6.921,6.921,0,0,1,65.845,68.424Z" transform="translate(-15.851 -19.235)" fill="#fff"/>
    <path id="Trazado_147" data-name="Trazado 147" d="M41.25,65.4c0,11.986,13.345,23.546,13.914,24.033a1.128,1.128,0,0,0,1.465,0C57.2,88.943,70.543,77.382,70.543,65.4a14.647,14.647,0,1,0-29.293,0Zm27.04,0c0,9.421-9.629,19.078-12.393,21.657C53.132,84.478,43.5,74.817,43.5,65.4a12.393,12.393,0,1,1,24.786,0Z" transform="translate(-12.823 -16.207)" fill="#fff"/>
    <path id="Trazado_148" data-name="Trazado 148" d="M80.566,42.277,43.87,5.58a1.125,1.125,0,0,0-1.593,0l-36.7,36.7a1.126,1.126,0,0,0,.8,1.923h9.818V79.77A1.127,1.127,0,0,0,17.321,80.9h51.5a1.127,1.127,0,0,0,1.127-1.127V44.2H79.77a1.126,1.126,0,0,0,.8-1.923ZM67.7,78.644H18.448V43.54L43.073,18.915,67.7,43.54Zm1.593-36.7L43.87,16.525a1.125,1.125,0,0,0-1.593,0L16.854,41.947H9.1L43.073,7.97,77.05,41.947Z" fill="#fff"/>
  </g>
</svg>
