<svg xmlns="http://www.w3.org/2000/svg" width="73.543" height="73.549" viewBox="0 0 73.543 73.549">
  <g id="servicio" transform="translate(-17.25 -17.246)">
    <path id="Trazado_7" data-name="Trazado 7" d="M57.622,34.112A23.507,23.507,0,1,0,70.539,77.267l.007,0a23.533,23.533,0,0,0,7.011-7.194l0-.008.014-.02A23.5,23.5,0,0,0,57.622,34.112ZM69.948,74.327,62,66.383a1.372,1.372,0,0,0-1.468-.315A10.32,10.32,0,0,1,46.542,55.393l5.034,5.034a1.385,1.385,0,0,0,1.327.353l5.753-1.543a1.376,1.376,0,0,0,.973-.974l1.542-5.752a1.373,1.373,0,0,0-.356-1.329l-5.034-5.034a10.237,10.237,0,0,1,8.337,2.966,10.376,10.376,0,0,1,2.338,11.034,1.376,1.376,0,0,0,.315,1.465l7.875,7.875a20.869,20.869,0,0,1-4.7,4.838Zm6.157-7.275-6.779-6.774A13.127,13.127,0,0,0,66.07,47.171,13,13,0,0,0,52.6,44.053a1.376,1.376,0,0,0-.529,2.281l6.236,6.236-1.131,4.219-4.218,1.13L46.72,51.681a1.377,1.377,0,0,0-2.276.529A13.07,13.07,0,0,0,60.661,68.937l6.9,6.9a20.822,20.822,0,1,1,8.542-8.787Z" transform="translate(-3.602 -3.601)" fill="#fff"/>
    <path id="Trazado_8" data-name="Trazado 8" d="M87.653,46.516l-.691-.046a4.058,4.058,0,0,1-3.5-2.709,31.05,31.05,0,0,0-1.4-3.26,4.054,4.054,0,0,1,.629-4.479l.42-.481a3.371,3.371,0,0,0-.157-4.59l-5.865-5.865a3.372,3.372,0,0,0-4.59-.157l-.643.562a4.189,4.189,0,0,1-4.546.591,31.183,31.183,0,0,0-2.9-1.186,4.187,4.187,0,0,1-2.826-3.642l-.058-.871a3.373,3.373,0,0,0-3.355-3.136H49.872a3.373,3.373,0,0,0-3.355,3.136l-.058.871a4.187,4.187,0,0,1-2.826,3.642,31.21,31.21,0,0,0-2.9,1.187,4.2,4.2,0,0,1-4.546-.591l-.643-.562a3.373,3.373,0,0,0-4.59.157l-5.865,5.865a3.371,3.371,0,0,0-.157,4.59l.42.481a4.051,4.051,0,0,1,.629,4.478,31.091,31.091,0,0,0-1.4,3.26,4.057,4.057,0,0,1-3.5,2.707l-.694.046A3.373,3.373,0,0,0,17.25,49.87v8.3a3.371,3.371,0,0,0,3.135,3.355l.385.026a4.052,4.052,0,0,1,3.539,2.813,31.232,31.232,0,0,0,1.4,3.462,4.065,4.065,0,0,1-.551,4.423l-.219.251a3.371,3.371,0,0,0,.157,4.59l5.865,5.865a3.371,3.371,0,0,0,4.59.157l.094-.079a4.055,4.055,0,0,1,4.487-.519A31.114,31.114,0,0,0,43.664,84a4.212,4.212,0,0,1,2.859,3.658,3.373,3.373,0,0,0,3.355,3.136h8.288a3.373,3.373,0,0,0,3.355-3.136A4.21,4.21,0,0,1,64.381,84a31.256,31.256,0,0,0,3.539-1.49,4.05,4.05,0,0,1,4.483.518l.1.083a3.37,3.37,0,0,0,4.59-.157l5.865-5.865a3.371,3.371,0,0,0,.157-4.59l-.219-.251a4.064,4.064,0,0,1-.551-4.423,31.233,31.233,0,0,0,1.395-3.461,4.051,4.051,0,0,1,3.539-2.813l.381-.026a3.371,3.371,0,0,0,3.136-3.355v-8.3A3.373,3.373,0,0,0,87.653,46.516Zm.384,11.65a.611.611,0,0,1-.569.608l-.381.026a6.793,6.793,0,0,0-5.967,4.686,28.317,28.317,0,0,1-1.271,3.156,6.817,6.817,0,0,0,.967,7.415l.219.25a.612.612,0,0,1-.028.832l-5.865,5.865a.612.612,0,0,1-.831.03l-.1-.084a6.8,6.8,0,0,0-7.521-.912A28.381,28.381,0,0,1,63.469,81.4a6.961,6.961,0,0,0-4.7,6.07.611.611,0,0,1-.608.569H49.872a.611.611,0,0,1-.608-.569,6.961,6.961,0,0,0-4.7-6.07,28.745,28.745,0,0,1-3.225-1.358,6.993,6.993,0,0,0-3.108-.735,6.685,6.685,0,0,0-4.412,1.647l-.094.079A.612.612,0,0,1,32.9,81l-5.865-5.865A.612.612,0,0,1,27,74.3l.219-.251a6.816,6.816,0,0,0,.967-7.414,28.316,28.316,0,0,1-1.271-3.156A6.793,6.793,0,0,0,20.953,58.8l-.384-.026A.61.61,0,0,1,20,58.162V49.872a.611.611,0,0,1,.568-.608l.694-.046A6.813,6.813,0,0,0,27.168,44.7a28.682,28.682,0,0,1,1.273-2.971,6.8,6.8,0,0,0-1.018-7.517L27,33.73a.612.612,0,0,1,.028-.832L32.9,27.033A.611.611,0,0,1,33.728,27l.643.562a6.95,6.95,0,0,0,7.527,1.01c.859-.4,1.748-.767,2.645-1.082A6.932,6.932,0,0,0,49.2,21.438l.059-.871A.611.611,0,0,1,49.87,20h8.3a.611.611,0,0,1,.608.569l.059.87a6.936,6.936,0,0,0,4.659,6.056,28.353,28.353,0,0,1,2.645,1.081,6.946,6.946,0,0,0,7.527-1.01L74.309,27a.612.612,0,0,1,.832.028L81.006,32.9a.612.612,0,0,1,.028.832l-.421.481A6.8,6.8,0,0,0,79.6,41.726,28.613,28.613,0,0,1,80.87,44.7a6.814,6.814,0,0,0,5.907,4.519l.691.046a.611.611,0,0,1,.569.608Z" fill="#fff"/>
  </g>
</svg>
