<svg xmlns="http://www.w3.org/2000/svg" width="72.417" height="72.646" viewBox="0 0 72.417 72.646">
  <g id="telefono_1_" data-name="telefono (1)" transform="translate(-14.988 -14.981)">
    <path id="Trazado_149" data-name="Trazado 149" d="M40.41,41.083,40.722,20.4a1.294,1.294,0,0,0-.384-.94,15.258,15.258,0,0,0-5.711-3.568,15.922,15.922,0,0,0-2.546-.669,15.463,15.463,0,0,0-13.316,3.966,1.283,1.283,0,0,0-.321.472A49.792,49.792,0,0,0,64.782,87.627q.723,0,1.446-.021a1.3,1.3,0,0,0,.55-.141,15.47,15.47,0,0,0,8.265-11.212,15.022,15.022,0,0,0,.228-2.61,15.257,15.257,0,0,0-1.163-5.974,1.3,1.3,0,0,0-.776-.729L52.958,59.971a1.293,1.293,0,0,0-1.066.1,15.514,15.514,0,0,0-6.661,7.64A35.688,35.688,0,0,1,30.059,46.153a15.677,15.677,0,0,0,9.933-4.141,1.291,1.291,0,0,0,.419-.929Zm-2.578-.608a13.033,13.033,0,0,1-9.289,3.078,1.292,1.292,0,0,0-1.358,1.534,38.275,38.275,0,0,0,18.081,25.7,1.292,1.292,0,0,0,1.9-.762,12.918,12.918,0,0,1,5.523-7.408l19.235,6.575a12.7,12.7,0,0,1,.759,4.445,12.433,12.433,0,0,1-.19,2.172,12.9,12.9,0,0,1-6.643,9.224,47.568,47.568,0,0,1-9.2-.7A47.142,47.142,0,0,1,17.6,36.353a47.732,47.732,0,0,1,3.139-15.472,12.9,12.9,0,0,1,10.893-3.113,13.388,13.388,0,0,1,2.134.562,12.672,12.672,0,0,1,4.359,2.6Z" transform="translate(0)" fill="#fff"/>
    <path id="Trazado_150" data-name="Trazado 150" d="M63.94,42.6a1.294,1.294,0,0,0,1.293,1.293A13.1,13.1,0,0,1,78.316,56.977a1.293,1.293,0,1,0,2.586,0,15.688,15.688,0,0,0-15.669-15.67A1.293,1.293,0,0,0,63.94,42.6Z" transform="translate(-12.788 -6.877)" fill="#fff"/>
    <path id="Trazado_151" data-name="Trazado 151" d="M65.59,28.356a1.292,1.292,0,0,0,1.293,1.293A22.409,22.409,0,0,1,89.268,52.033a1.293,1.293,0,1,0,2.586,0,25,25,0,0,0-24.97-24.97,1.293,1.293,0,0,0-1.293,1.293Z" transform="translate(-13.219 -3.156)" fill="#fff"/>
    <path id="Trazado_152" data-name="Trazado 152" d="M99.229,45.563a1.293,1.293,0,1,0,2.586,0A30.4,30.4,0,0,0,71.443,15.2a1.293,1.293,0,0,0,0,2.586A27.815,27.815,0,0,1,99.229,45.563Z" transform="translate(-14.41 -0.057)" fill="#fff"/>
  </g>
</svg>
