<svg xmlns="http://www.w3.org/2000/svg" width="38.114" height="36.208" viewBox="0 0 38.114 36.208">
  <path id="work_FILL1_wght400_GRAD0_opsz48" d="M6.859,40.208a2.742,2.742,0,0,1-2-.858,2.742,2.742,0,0,1-.858-2V14.481a2.742,2.742,0,0,1,.858-2,2.742,2.742,0,0,1,2-.858h8.576V6.859a2.742,2.742,0,0,1,.858-2,2.742,2.742,0,0,1,2-.858h9.529a2.742,2.742,0,0,1,2,.858,2.742,2.742,0,0,1,.858,2v4.764h8.576a2.931,2.931,0,0,1,2.859,2.859V37.35a2.931,2.931,0,0,1-2.859,2.859ZM18.293,11.623h9.529V6.859H18.293Z" transform="translate(-4 -4)" fill="#fff"/>
</svg>
