<svg xmlns="http://www.w3.org/2000/svg" width="51.941" height="51.942" viewBox="0 0 51.941 51.942">
  <g id="user" transform="translate(0)">
    <path id="Trazado_3" data-name="Trazado 3" d="M421.5,252.6l-.173-.173C421.479,252.394,421.536,252.451,421.5,252.6Z" transform="translate(-369.571 -252.418)" fill="#2af7fe"/>
    <path id="Trazado_4" data-name="Trazado 4" d="M122.433,551.33l.173.173C122.456,551.536,122.4,551.479,122.433,551.33Z" transform="translate(-122.423 -499.57)" fill="#2af7fe"/>
    <path id="Trazado_5" data-name="Trazado 5" d="M421.33,551.5l.173-.173C421.536,551.479,421.479,551.536,421.33,551.5Z" transform="translate(-369.571 -499.57)" fill="#2af7fe"/>
    <path id="Trazado_6" data-name="Trazado 6" d="M182.619,331.275H165.372c-1.162,0-1.212-.142-1.314-1.283-.293-3.214,1.323-5.207,4.023-6.563,1.8-.906,3.716-1.529,5.564-2.319a11.991,11.991,0,0,0,3.051-1.752,4.045,4.045,0,0,0,1.319-2.267.958.958,0,0,0-.244-.866,19.4,19.4,0,0,1-4.329-13.72,8.658,8.658,0,0,1,5.307-7.6,8.876,8.876,0,0,1,9.38.866c3.131,2.234,4.177,5.432,3.858,9.143a20.558,20.558,0,0,1-3.81,10.646c-.331.455-.985.783-.8,1.527a4.18,4.18,0,0,0,1.385,2.319,20.7,20.7,0,0,0,5.541,2.722,21.494,21.494,0,0,1,4.675,2.346c2.142,1.545,2.528,3.711,2.308,6.114-.052.582-.506.693-1.015.693-2.012-.009-4.024,0-6.038,0Z" transform="translate(-156.82 -286.761)" fill="#2af7fe"/>
  </g>
</svg>
